<!--?xml version="1.0" standalone="no"?-->
<svg id="sw-js-blob-svg" viewBox="0 0 100 100" xmlns="http://www.w3.org/2000/svg" version="1.1">
      <defs> 
          <linearGradient id="sw-gradient" x1="0" x2="1" y1="1" y2="0">
              <stop id="stop1" stop-color="rgba(228, 0, 1, 1)" offset="0%"></stop>
              <stop id="stop2" stop-color="rgba(251, 193, 23, 1)" offset="100%"></stop>
          </linearGradient>
      </defs>
  <path fill="url(#sw-gradient)" d="M16.5,-24.9C22,-22.2,27.3,-18.6,31.4,-13.3C35.6,-7.9,38.6,-1,37.4,5.3C36.3,11.5,31.2,17,25.4,20C19.7,22.9,13.3,23.3,7.2,25.8C1,28.2,-4.9,32.7,-12,33.8C-19.1,35,-27.3,32.9,-29,27.2C-30.7,21.5,-26,12.3,-25.9,4.5C-25.8,-3.3,-30.3,-9.6,-29.6,-14.5C-28.9,-19.4,-22.9,-22.9,-17.1,-25.4C-11.3,-27.9,-5.7,-29.4,-0.1,-29.4C5.5,-29.3,11.1,-27.6,16.5,-24.9Z" width="100%" height="100%" transform="translate(50 50)" style="transition: all 0.3s ease 0s;" stroke-width="0" stroke="url(#sw-gradient)"></path>
</svg>